<svg xmlns="http://www.w3.org/2000/svg" data-v-db7fd068="" data-v-7c79e352="" data-v-3e702cb0="" viewBox="0 0 24 24" role="presentation" width="16" height="16" aria-labelledby="chart-pie" transform=""><g data-v-db7fd068="" fill="currentColor" id="chart-pie"><path data-v-7c79e352="" data-v-db7fd068="" fill-rule="evenodd" clip-rule="evenodd" d="M9.22513 3.38925C9.42392 3.84481 9.21578 4.37527 8.76022 4.57407C7.54758 5.10324 6.48303 5.92142 5.65964 6.95706C4.83625 7.9927 4.2791 9.21427 4.03688 10.515C3.79467 11.8157 3.87477 13.1559 4.27019 14.4185C4.66561 15.6811 5.3643 16.8276 6.30518 17.7578C7.24606 18.688 8.40048 19.3736 9.66752 19.7546C10.9346 20.1355 12.2756 20.2003 13.5735 19.9433C14.8714 19.6862 16.0865 19.1152 17.1127 18.28C18.1388 17.4448 18.9448 16.371 19.4601 15.1524C19.6537 14.6946 20.1817 14.4804 20.6395 14.674C21.0973 14.8676 21.3115 15.3956 21.1179 15.8534C20.4881 17.3428 19.5031 18.6553 18.2488 19.676C16.9946 20.6968 15.5095 21.3948 13.9232 21.7089C12.3369 22.0231 10.6978 21.9439 9.14923 21.4783C7.60063 21.0127 6.18967 20.1748 5.0397 19.0379C3.88974 17.901 3.03578 16.4997 2.55249 14.9565C2.06921 13.4133 1.9713 11.7752 2.26734 10.1855C2.56338 8.5957 3.24435 7.10267 4.25072 5.83689C5.25708 4.5711 6.55819 3.57111 8.04031 2.92435C8.49587 2.72555 9.02633 2.93369 9.22513 3.38925Z" fill="#ffffff"/> <path data-v-7c79e352="" data-v-db7fd068="" fill-rule="evenodd" clip-rule="evenodd" d="M11.3638 2.36589C11.5326 2.19711 11.7615 2.10229 12.0002 2.10229C13.3003 2.10229 14.5876 2.35836 15.7887 2.85587C16.9898 3.35338 18.0811 4.08259 19.0004 5.00187C19.9197 5.92115 20.6489 7.01249 21.1464 8.21358C21.6439 9.41468 21.9 10.702 21.9 12.0021C21.9 12.4991 21.4971 12.902 21 12.902H12.0002C11.5032 12.902 11.1002 12.4991 11.1002 12.0021V3.00227C11.1002 2.76359 11.195 2.53467 11.3638 2.36589ZM12.9002 3.95241V11.1021H20.0499C19.9655 10.3474 19.7752 9.60676 19.4835 8.9024C19.0764 7.91969 18.4798 7.02677 17.7276 6.27463C16.9755 5.5225 16.0826 4.92587 15.0999 4.51882C14.3955 4.22706 13.6549 4.03679 12.9002 3.95241Z" fill="#ffffff"/></g></svg>