<svg xmlns="http://www.w3.org/2000/svg" data-v-db7fd068="" data-v-531b92a9="" data-v-b71f5cec="" viewBox="0 0 24 24" role="presentation" width="24" height="24" aria-labelledby="expenses-new" transform="" class="icon"><g data-v-db7fd068="" fill="currentColor" id="expenses-new"><path data-v-531b92a9="" data-v-db7fd068="" d="M18.4 22H5.4C3.2 22 1.5 20.2 1.5 18V10C1.5 7.70002 3.2 5.90002 5.4 5.90002H18.4C20.7 5.90002 22.5 7.70002 22.5 10V18C22.5 20.3 20.7 22 18.4 22ZM5.4 7.20002C3.9 7.20002 2.8 8.40002 2.8 10V18C2.8 19.6 3.9 20.7 5.4 20.7H18.4C19.9 20.7 21.2 19.5 21.2 18V10C21.2 8.50002 20 7.20002 18.4 7.20002H5.4Z" fill="#ffffff"/> <path data-v-531b92a9="" data-v-db7fd068="" d="M22.5 17H17.4C15.7 17 14.3 15.7 14.3 14C14.3 12.3 15.7 10.9 17.4 10.9H22.5V17ZM17.4 12.2C16.5 12.2 15.6 13 15.6 14C15.6 14.9 16.4 15.6 17.4 15.6H21.2V12.2H17.4Z" fill="#ffffff"/> <path data-v-531b92a9="" data-v-db7fd068="" d="M18.2 7.20005H4.40002L8.20002 2.60005C8.80002 2.00005 9.90002 1.80005 10.8 2.20005L18.2 7.20005ZM7.20002 5.90005H14L10.2 3.30005C9.90002 3.20005 9.40002 3.30005 9.20002 3.50005L7.20002 5.90005Z" fill="#ffffff"/></g></svg>