<svg data-v-db7fd068="" data-v-25987ae0="" data-v-b71f5cec="" xmlns="http://www.w3.org/2000/svg" viewBox="0 0 24 24" role="presentation" width="24" height="24" aria-labelledby="operations" transform="" class="icon"><g data-v-db7fd068="" fill="currentColor" id="operations"><path data-v-25987ae0="" data-v-db7fd068="" fill-rule="evenodd" clip-rule="evenodd" d="M13.5512 1.37635C13.8034 1.27188 14.0938 1.32963 14.2868 1.52267L21.5249 8.76077C21.718 8.95382 21.7757 9.24415 21.6712 9.49638C21.5667 9.74861 21.3206 9.91307 21.0476 9.91307H17.4286C16.034 9.91307 14.8895 9.68935 14.1239 8.9237C13.3582 8.15804 13.1345 7.01356 13.1345 5.61902V1.99997C13.1345 1.72696 13.299 1.48083 13.5512 1.37635ZM14.4845 3.62957V5.61902C14.4845 6.93877 14.7132 7.60381 15.0785 7.9691C15.4438 8.3344 16.1088 8.56307 17.4286 8.56307H19.418L14.4845 3.62957Z"/> <path data-v-25987ae0="" data-v-db7fd068="" fill-rule="evenodd" clip-rule="evenodd" d="M4.89988 3.94749C4.07054 4.77682 3.62734 6.13795 3.62734 8.33328V15.6666C3.62734 17.8619 4.07054 19.2231 4.89988 20.0524C5.72921 20.8818 7.09034 21.325 9.28567 21.325H14.7142C16.9096 21.325 18.2707 20.8818 19.1 20.0524C19.9294 19.2231 20.3726 17.8619 20.3726 15.6666V9.23805C20.3726 8.86525 20.6748 8.56305 21.0476 8.56305C21.4203 8.56305 21.7226 8.86525 21.7226 9.23805V15.6666C21.7226 17.9951 21.261 19.8006 20.0546 21.007C18.8482 22.2134 17.0427 22.6749 14.7142 22.6749H9.28567C6.95719 22.6749 5.15166 22.2134 3.94528 21.007C2.73891 19.8006 2.27734 17.9951 2.27734 15.6666V8.33328C2.27734 6.00481 2.73891 4.19927 3.94528 2.99289C5.15166 1.78651 6.95719 1.32495 9.28567 1.32495H13.8095C14.1823 1.32495 14.4845 1.62716 14.4845 1.99995C14.4845 2.37274 14.1823 2.67495 13.8095 2.67495H9.28567C7.09034 2.67495 5.72921 3.11815 4.89988 3.94749Z"/> <path data-v-25987ae0="" data-v-db7fd068="" fill-rule="evenodd" clip-rule="evenodd" d="M7 14.2143C7 13.8198 7.3198 13.5 7.71429 13.5H14.1429C14.5373 13.5 14.8571 13.8198 14.8571 14.2143C14.8571 14.6088 14.5373 14.9286 14.1429 14.9286H7.71429C7.3198 14.9286 7 14.6088 7 14.2143Z"/> <path data-v-25987ae0="" data-v-db7fd068="" fill-rule="evenodd" clip-rule="evenodd" d="M7 17.3571C7 16.9626 7.3198 16.6428 7.71429 16.6428H12.1429C12.5373 16.6428 12.8571 16.9626 12.8571 17.3571C12.8571 17.7516 12.5373 18.0714 12.1429 18.0714H7.71429C7.3198 18.0714 7 17.7516 7 17.3571Z"/></g></svg>