<svg xmlns="http://www.w3.org/2000/svg" data-v-db7fd068="" data-v-29d922e4="" data-v-b71f5cec="" viewBox="0 0 24 24" role="presentation" width="24" height="24" aria-labelledby="incomes-new" transform="" class="icon"><g data-v-db7fd068="" fill="currentColor" id="incomes-new"><path data-v-29d922e4="" data-v-db7fd068="" fill-rule="evenodd" clip-rule="evenodd" d="M19.6808 1.67954C19.9594 1.92721 19.9845 2.35386 19.7368 2.63249L19.0262 3.43196C15.0963 7.99984 9.88746 11.1976 4.13062 12.6597C3.7693 12.7514 3.402 12.5329 3.31024 12.1716C3.21847 11.8103 3.43699 11.443 3.79831 11.3512C9.2897 9.95657 14.258 6.90589 18.0063 2.54748L18.0135 2.5391L18.0135 2.53916L18.7278 1.73559C18.9755 1.45697 19.4021 1.43187 19.6808 1.67954Z" fill="#3cb371"/> <path data-v-29d922e4="" data-v-db7fd068="" fill-rule="evenodd" clip-rule="evenodd" d="M14.1823 2.18403C14.1823 1.81124 14.4845 1.50903 14.8573 1.50903H19.2323C19.605 1.50903 19.9073 1.81124 19.9073 2.18403V6.55902C19.9073 6.93181 19.605 7.23402 19.2323 7.23402C18.8595 7.23402 18.5573 6.93181 18.5573 6.55902V2.85903H14.8573C14.4845 2.85903 14.1823 2.55683 14.1823 2.18403Z" fill="#3cb371"/> <path data-v-29d922e4="" data-v-db7fd068="" fill-rule="evenodd" clip-rule="evenodd" d="M3.51805 16.8769C3.06104 16.8769 2.6752 17.2254 2.6752 17.7197V20.3983C2.6752 20.8926 3.06104 21.2411 3.51805 21.2411H5.30377C5.79813 21.2411 6.14662 20.8553 6.14662 20.3983V17.7197C6.14662 17.2254 5.76078 16.8769 5.30377 16.8769H3.51805ZM1.3252 17.7197C1.3252 16.4284 2.36793 15.5269 3.51805 15.5269H5.30377C6.45389 15.5269 7.49662 16.4284 7.49662 17.7197V20.3983C7.49662 21.5484 6.59512 22.5911 5.30377 22.5911H3.51805C2.36793 22.5911 1.3252 21.6896 1.3252 20.3983V17.7197Z" fill="#3cb371"/> <path data-v-29d922e4="" data-v-db7fd068="" fill-rule="evenodd" clip-rule="evenodd" d="M11.1073 14.1983C10.6503 14.1983 10.2644 14.5468 10.2644 15.0411V20.3982C10.2644 20.8926 10.6503 21.2411 11.1073 21.2411H12.893C13.3874 21.2411 13.7359 20.8553 13.7359 20.3982V15.0411C13.7359 14.5468 13.35 14.1983 12.893 14.1983H11.1073ZM8.91443 15.0411C8.91443 13.7498 9.95716 12.8483 11.1073 12.8483H12.893C14.0431 12.8483 15.0859 13.7498 15.0859 15.0411V20.3982C15.0859 21.5484 14.1844 22.5911 12.893 22.5911H11.1073C9.95716 22.5911 8.91443 21.6896 8.91443 20.3982V15.0411Z" fill="#3cb371"/> <path data-v-29d922e4="" data-v-db7fd068="" fill-rule="evenodd" clip-rule="evenodd" d="M18.6966 11.5197C18.2396 11.5197 17.8538 11.8682 17.8538 12.3625V20.3982C17.8538 20.8926 18.2396 21.2411 18.6966 21.2411H20.4824C20.9767 21.2411 21.3252 20.8552 21.3252 20.3982V12.3625C21.3252 11.8682 20.9394 11.5197 20.4824 11.5197H18.6966ZM16.5038 12.3625C16.5038 11.0712 17.5465 10.1697 18.6966 10.1697H20.4824C21.6325 10.1697 22.6752 11.0712 22.6752 12.3625V20.3982C22.6752 21.5483 21.7737 22.5911 20.4824 22.5911H18.6966C17.5465 22.5911 16.5038 21.6896 16.5038 20.3982V12.3625Z" fill="#3cb371"/></g></svg>